<?xml version="1.0" standalone="no"?>
<!DOCTYPE svg PUBLIC "-//W3C//DTD SVG 20010904//EN"
 "http://www.w3.org/TR/2001/REC-SVG-20010904/DTD/svg10.dtd">
<svg version="1.0" xmlns="http://www.w3.org/2000/svg"
 width="204.000000pt" height="192.000000pt" viewBox="0 0 204.000000 192.000000"
 preserveAspectRatio="xMidYMid meet">

<g transform="translate(0.000000,192.000000) scale(0.100000,-0.100000)"
fill="#000000" stroke="none">
<path d="M199 1892 c-88 -57 -154 -155 -181 -274 -10 -40 -13 -198 -12 -623 1
-603 3 -705 11 -645 5 30 7 32 13 15 7 -17 9 -16 10 10 2 30 2 30 10 5 5 -17
8 -19 9 -7 1 9 6 17 11 17 6 0 10 6 10 13 0 14 40 37 64 37 7 0 25 9 39 20 29
23 54 26 60 7 2 -6 2 -2 0 11 -2 12 1 22 7 22 5 0 10 -5 10 -11 0 -5 5 -7 10
-4 6 3 10 -3 10 -14 0 -11 4 -22 9 -25 5 -4 2 18 -7 46 -12 43 -16 122 -19
415 -5 395 2 472 50 576 46 101 147 179 274 212 84 22 782 22 866 0 174 -45
274 -152 312 -332 21 -98 21 -718 0 -816 -31 -146 -106 -245 -233 -307 -63
-31 -66 -33 -42 -42 20 -7 22 -11 10 -18 -13 -8 -12 -10 3 -10 12 0 29 -23 52
-72 19 -39 35 -77 35 -85 0 -10 26 -13 114 -13 l114 0 51 40 c62 49 112 122
143 210 l23 65 0 640 c0 601 -1 643 -19 695 -39 114 -90 184 -175 241 l-44 29
-777 0 -776 0 -45 -28z"/>
<path d="M645 1560 c-108 -16 -191 -86 -222 -187 -16 -51 -18 -100 -18 -408 0
-273 3 -361 14 -399 13 -45 15 -47 23 -25 7 19 11 21 18 9 7 -12 12 -12 22 -2
6 6 26 12 44 12 18 0 34 6 36 12 3 9 32 13 87 15 46 1 86 4 88 7 3 3 12 -2 20
-10 20 -19 30 -10 13 11 -12 14 -10 15 16 9 16 -4 44 -13 62 -21 17 -7 32 -10
32 -6 0 5 4 3 8 -3 4 -6 44 -15 89 -21 58 -7 103 -21 150 -44 38 -18 70 -36
73 -40 3 -3 20 -14 39 -24 37 -19 54 -31 79 -57 9 -10 23 -18 32 -18 13 0 13
-2 0 -11 -24 -17 89 0 135 20 54 24 109 87 131 152 17 49 19 88 19 419 0 435
-3 452 -89 536 -34 33 -68 55 -97 64 -50 15 -717 24 -804 10z m846 -139 c39
-40 39 -82 0 -122 -42 -42 -99 -41 -135 2 -35 41 -34 83 3 120 22 21 39 29 66
29 27 0 44 -8 66 -29z m-400 -81 c120 -23 223 -100 281 -212 31 -59 33 -69 33
-168 0 -95 -3 -111 -29 -168 -37 -80 -134 -172 -211 -201 -109 -41 -231 -35
-335 17 -56 28 -129 108 -164 181 -28 60 -31 75 -31 166 0 91 3 106 31 165 53
112 149 189 266 215 79 17 93 17 159 5z"/>
<path d="M925 1184 c-114 -42 -180 -183 -143 -307 17 -55 100 -139 154 -155
50 -15 116 -15 165 -2 88 24 169 137 169 235 0 92 -68 194 -152 229 -46 20
-140 19 -193 0z"/>
<path d="M800 584 c0 -7 52 -25 57 -20 2 2 -10 8 -26 14 -17 6 -31 9 -31 6z"/>
<path d="M21 294 c0 -11 3 -14 6 -6 3 7 2 16 -1 19 -3 4 -6 -2 -5 -13z"/>
</g>
</svg>
