<?xml version="1.0" standalone="no"?>
<!DOCTYPE svg PUBLIC "-//W3C//DTD SVG 20010904//EN"
 "http://www.w3.org/TR/2001/REC-SVG-20010904/DTD/svg10.dtd">
<svg version="1.0" xmlns="http://www.w3.org/2000/svg"
 width="204.000000pt" height="192.000000pt" viewBox="0 0 204.000000 192.000000"
 preserveAspectRatio="xMidYMid meet">

<g transform="translate(0.000000,192.000000) scale(0.100000,-0.100000)"
fill="#000000" stroke="none">
<path d="M41 1894 c-12 -15 -26 -44 -31 -65 -7 -25 -10 -333 -8 -896 3 -845 3
-859 24 -893 l20 -35 974 0 974 0 20 35 c21 34 21 48 24 893 2 563 -1 871 -8
896 -5 21 -19 50 -31 65 l-20 26 -959 0 -959 0 -20 -26z m514 -164 c81 -36
124 -106 125 -200 0 -75 -31 -134 -92 -176 -91 -62 -212 -50 -285 28 -116 124
-53 327 115 367 44 11 82 5 137 -19z m1022 -506 c102 -28 183 -115 225 -242
20 -63 22 -90 26 -415 2 -192 1 -359 -2 -372 -9 -37 -51 -47 -189 -43 -86 2
-129 7 -140 17 -15 12 -17 45 -17 285 0 363 -9 415 -84 470 -40 30 -133 28
-181 -5 -79 -54 -95 -132 -95 -474 0 -232 -2 -264 -17 -276 -12 -10 -52 -14
-155 -14 -127 0 -141 2 -154 19 -12 17 -14 104 -14 520 0 451 2 501 17 518 14
16 33 18 154 18 160 0 169 -4 169 -77 l0 -46 50 47 c61 57 105 77 190 86 79 8
148 3 217 -16z m-957 -14 c19 -19 20 -33 20 -514 0 -471 -1 -495 -19 -517 -19
-23 -24 -24 -156 -24 -132 0 -137 1 -156 24 -18 22 -19 46 -19 515 0 429 2
494 16 514 14 21 22 22 155 22 126 0 141 -2 159 -20z"/>
</g>
</svg>
